<svg width="24" height="24" viewBox="0 0 24 24" fill="none" xmlns="http://www.w3.org/2000/svg">
<path d="M18.0342 12.69C18.0063 9.90315 20.3175 8.56651 20.4209 8.49899C19.1219 6.60873 17.0983 6.34936 16.3781 6.31985C14.6573 6.14589 13.0187 7.3287 12.1457 7.3287C11.2745 7.3287 9.92576 6.34534 8.4988 6.37038C6.62164 6.39811 4.8914 7.45704 3.92542 9.12952C1.97592 12.4955 3.4267 17.4839 5.32632 20.2157C6.25502 21.551 7.36253 23.0536 8.81555 22.9986C10.216 22.9435 10.7444 22.097 12.4373 22.097C14.1303 22.097 14.6056 22.9986 16.087 22.9704C17.593 22.9431 18.5477 21.6096 19.4688 20.2689C20.535 18.7176 20.9739 17.2155 21 17.1395C20.9672 17.1243 18.0643 16.0175 18.0342 12.69Z" fill="currentColor"/>
<path d="M15.251 4.51265C16.0216 3.58161 16.5437 2.2879 16.4017 1C15.2897 1.04472 13.9436 1.73562 13.1452 2.66577C12.4299 3.49127 11.8045 4.80555 11.9721 6.0702C13.2126 6.16589 14.4778 5.4419 15.251 4.51265Z" fill="currentColor"/>
</svg>