<svg xmlns="http://www.w3.org/2000/svg" xmlns:xlink="http://www.w3.org/1999/xlink" width="24px" height="24px" viewBox="0 0 24 24" version="1.1">
<g id="surface1">
<path fill="currentColor" d="M 23.75 4 L 16.34375 4 C 16.179688 3.714844 15.875 3.542969 15.546875 3.542969 L 9.765625 3.542969 C 9.4375 3.542969 9.132812 3.714844 8.96875 4 L 7.800781 4 L 6.574219 3.558594 C 6.496094 3.53125 6.410156 3.542969 6.34375 3.589844 C 6.277344 3.632812 6.238281 3.710938 6.238281 3.792969 L 6.238281 3.894531 L 5.300781 3.558594 C 5.222656 3.53125 5.136719 3.542969 5.070312 3.589844 C 5.003906 3.632812 4.964844 3.710938 4.964844 3.792969 L 4.964844 3.894531 L 4.027344 3.558594 C 3.949219 3.527344 3.863281 3.539062 3.796875 3.585938 C 3.730469 3.632812 3.691406 3.710938 3.691406 3.792969 L 3.691406 3.894531 L 2.753906 3.558594 C 2.675781 3.53125 2.589844 3.542969 2.523438 3.589844 C 2.457031 3.632812 2.417969 3.710938 2.417969 3.792969 L 2.417969 3.894531 L 1.480469 3.558594 C 1.402344 3.53125 1.316406 3.542969 1.25 3.589844 C 1.183594 3.632812 1.144531 3.710938 1.144531 3.792969 L 1.144531 4 L 0.25 4 C 0.113281 4 0 4.113281 0 4.25 L 0 11.707031 C 0 11.84375 0.113281 11.957031 0.25 11.957031 L 1.144531 11.957031 C 1.144531 12.175781 1.125 12.28125 1.253906 12.371094 C 1.320312 12.417969 1.402344 12.429688 1.480469 12.402344 L 2.417969 12.0625 L 2.417969 12.167969 C 2.417969 12.304688 2.53125 12.417969 2.667969 12.417969 C 2.730469 12.417969 2.671875 12.429688 3.691406 12.0625 L 3.691406 12.167969 C 3.691406 12.25 3.730469 12.324219 3.796875 12.371094 C 3.863281 12.417969 3.949219 12.429688 4.027344 12.402344 L 4.964844 12.0625 L 4.964844 12.167969 C 4.964844 12.304688 5.078125 12.417969 5.214844 12.417969 C 5.277344 12.417969 5.226562 12.429688 6.238281 12.0625 L 6.238281 12.167969 C 6.238281 12.25 6.277344 12.324219 6.34375 12.371094 C 6.410156 12.417969 6.496094 12.429688 6.574219 12.402344 L 7.800781 11.957031 L 8.96875 11.957031 C 9.132812 12.242188 9.4375 12.417969 9.765625 12.417969 L 10.007812 12.417969 L 10.285156 13.121094 C 10.394531 13.394531 10.65625 13.574219 10.953125 13.574219 L 11.875 13.574219 L 11.875 19.144531 L 9.726562 19.144531 C 9.472656 19.144531 9.269531 19.347656 9.269531 19.601562 L 9.269531 20.207031 C 9.269531 20.34375 9.382812 20.457031 9.519531 20.457031 L 15.792969 20.457031 C 15.929688 20.457031 16.042969 20.34375 16.042969 20.207031 L 16.042969 19.601562 C 16.042969 19.347656 15.839844 19.144531 15.585938 19.144531 L 13.4375 19.144531 L 13.4375 13.574219 L 14.359375 13.574219 C 14.65625 13.574219 14.917969 13.394531 15.027344 13.121094 L 15.304688 12.417969 L 15.546875 12.417969 C 15.875 12.417969 16.179688 12.242188 16.34375 11.957031 L 23.75 11.957031 C 23.886719 11.957031 24 11.84375 24 11.707031 L 24 4.25 C 24 4.113281 23.886719 4 23.75 4 Z M 23.5 6.273438 L 18.59375 6.273438 C 18.457031 6.273438 18.34375 6.386719 18.34375 6.523438 L 18.34375 8.148438 C 18.34375 8.214844 18.371094 8.28125 18.417969 8.328125 C 18.464844 8.375 18.527344 8.402344 18.59375 8.398438 L 23.5 8.398438 L 23.5 8.898438 L 17.9375 8.898438 C 17.914062 8.902344 17.890625 8.890625 17.871094 8.875 C 17.855469 8.855469 17.84375 8.832031 17.84375 8.808594 L 17.84375 5.871094 C 17.84375 5.84375 17.855469 5.820312 17.871094 5.804688 C 17.890625 5.785156 17.914062 5.773438 17.9375 5.773438 L 23.5 5.773438 Z M 23.5 7.898438 L 18.84375 7.898438 L 18.84375 6.773438 L 23.5 6.773438 Z M 23.5 5.273438 L 17.9375 5.273438 C 17.609375 5.277344 17.34375 5.542969 17.34375 5.871094 L 17.34375 8.808594 C 17.34375 9.136719 17.609375 9.398438 17.9375 9.398438 L 23.5 9.398438 L 23.5 10.21875 L 20.328125 10.21875 C 20.082031 10.21875 19.839844 10.316406 19.664062 10.492188 L 18.703125 11.457031 L 16.46875 11.457031 L 16.46875 4.5 L 23.5 4.5 Z M 8.011719 4.5 L 8.84375 4.5 L 8.84375 11.457031 L 8.011719 11.457031 Z M 0.5 11.457031 L 0.5 4.5 L 1.144531 4.5 L 1.144531 11.457031 Z M 1.644531 11.808594 L 1.644531 4.148438 L 2.417969 4.425781 L 2.417969 11.53125 Z M 2.917969 11.808594 L 2.917969 4.148438 L 3.691406 4.425781 L 3.691406 11.53125 Z M 4.191406 11.808594 L 4.191406 4.148438 L 4.964844 4.425781 L 4.964844 11.53125 Z M 5.464844 11.808594 L 5.464844 4.148438 L 6.238281 4.425781 L 6.238281 11.53125 Z M 6.738281 4.148438 L 7.480469 4.414062 L 7.480469 11.542969 L 6.738281 11.808594 Z M 9.648438 11.898438 C 9.46875 11.847656 9.34375 11.683594 9.34375 11.496094 L 9.34375 4.460938 C 9.34375 4.230469 9.53125 4.042969 9.765625 4.042969 L 15.546875 4.042969 C 15.664062 4.042969 15.777344 4.089844 15.859375 4.179688 C 15.941406 4.265625 15.980469 4.382812 15.96875 4.5 L 15.96875 11.496094 C 15.96875 11.726562 15.78125 11.917969 15.546875 11.917969 C 9.324219 11.917969 9.722656 11.925781 9.648438 11.898438 Z M 13.1875 19.644531 L 15.542969 19.644531 L 15.542969 19.957031 L 9.769531 19.957031 L 9.769531 19.644531 C 14.371094 19.644531 10.371094 19.644531 12.554688 19.644531 C 12.691406 19.644531 12.804688 19.53125 12.804688 19.394531 C 12.804688 19.257812 12.691406 19.144531 12.554688 19.144531 L 12.375 19.144531 L 12.375 13.574219 L 12.9375 13.574219 L 12.9375 19.394531 C 12.9375 19.53125 13.050781 19.644531 13.1875 19.644531 Z M 14.5625 12.933594 C 14.53125 13.019531 14.449219 13.074219 14.359375 13.074219 L 10.953125 13.074219 C 10.863281 13.074219 10.78125 13.019531 10.75 12.933594 L 10.546875 12.417969 L 14.765625 12.417969 Z M 19.410156 11.457031 L 20.019531 10.847656 C 20.101562 10.765625 20.214844 10.71875 20.328125 10.71875 L 23.5 10.71875 L 23.5 11.457031 Z M 19.410156 11.457031"/>
<path fill="currentColor" d="M 12.65625 11.019531 C 13.730469 11.019531 14.601562 10.148438 14.605469 9.074219 C 14.605469 6.722656 14.648438 6.621094 14.46875 6.179688 C 14.128906 5.304688 13.21875 4.796875 12.296875 4.972656 C 11.375 5.144531 10.707031 5.949219 10.707031 6.886719 L 10.707031 9.074219 C 10.707031 10.148438 11.578125 11.019531 12.65625 11.019531 Z M 11.207031 6.886719 C 11.238281 6.109375 11.878906 5.496094 12.65625 5.496094 C 13.433594 5.496094 14.074219 6.109375 14.105469 6.886719 L 14.105469 9.074219 C 14.074219 9.847656 13.433594 10.460938 12.65625 10.460938 C 11.878906 10.460938 11.238281 9.847656 11.207031 9.074219 Z M 11.207031 6.886719 "/>
<path fill="currentColor" d="M 12.65625 10.019531 C 13.179688 10.019531 13.605469 9.597656 13.605469 9.074219 L 13.605469 6.886719 C 13.578125 6.378906 13.160156 5.984375 12.65625 5.984375 C 12.152344 5.984375 11.734375 6.378906 11.707031 6.886719 L 11.707031 9.074219 C 11.707031 9.59375 12.132812 10.019531 12.65625 10.019531 Z M 12.207031 6.886719 C 12.226562 6.648438 12.421875 6.46875 12.65625 6.46875 C 12.890625 6.46875 13.085938 6.648438 13.105469 6.886719 L 13.105469 9.074219 C 13.085938 9.308594 12.890625 9.488281 12.65625 9.488281 C 12.421875 9.488281 12.226562 9.308594 12.207031 9.074219 Z M 12.207031 6.886719 "/>
</g>
</svg>