<svg width="24" height="24" viewBox="0 0 24 24" fill="none" xmlns="http://www.w3.org/2000/svg">
<path d="M6 12C6.00668 11.7929 6.04677 11.6025 6.12027 11.4287C6.20045 11.255 6.32071 11.088 6.48107 10.9276L14.1982 3.38085C14.4521 3.12695 14.7628 3 15.1303 3C15.3842 3 15.6114 3.06013 15.8118 3.1804C16.0189 3.30067 16.1826 3.46437 16.3029 3.67149C16.4298 3.87194 16.4933 4.09577 16.4933 4.34298C16.4933 4.71715 16.353 5.04454 16.0724 5.32517L9.20713 12L16.0724 18.6748C16.353 18.9621 16.4933 19.2895 16.4933 19.657C16.4933 19.9109 16.4298 20.1381 16.3029 20.3385C16.1826 20.539 16.0189 20.6993 15.8118 20.8196C15.6114 20.9399 15.3842 21 15.1303 21C14.7628 21 14.4521 20.8731 14.1982 20.6192L6.48107 13.0724C6.31403 12.912 6.19042 12.745 6.11024 12.5713C6.03675 12.3909 6 12.2004 6 12Z" fill="currentColor"/>
</svg>