<svg width="24" height="24" viewBox="0 0 24 24" fill="none" xmlns="http://www.w3.org/2000/svg">
<path d="M5.377 18.6231C5.20718 18.4534 5.0951 18.2565 5.04076 18.0324C4.98641 17.8015 4.98641 17.574 5.04076 17.3499C5.0951 17.1259 5.20378 16.9323 5.36681 16.7694L10.1456 11.9924L5.36681 7.22554C5.20378 7.06257 5.0951 6.86904 5.04076 6.64496C4.98641 6.42088 4.98641 6.1968 5.04076 5.97272C5.0951 5.74185 5.20718 5.54153 5.377 5.37177C5.54003 5.2088 5.73362 5.10016 5.95779 5.04583C6.18874 4.98472 6.4163 4.98472 6.64047 5.04583C6.87142 5.10016 7.06841 5.20541 7.23144 5.36159L12 10.1386L16.7787 5.37177C16.9418 5.2088 17.132 5.10016 17.3493 5.04583C17.5735 4.98472 17.7977 4.98472 18.0218 5.04583C18.2528 5.10016 18.4498 5.2122 18.6128 5.38196C18.7894 5.54493 18.9049 5.74185 18.9592 5.97272C19.0136 6.1968 19.0136 6.42088 18.9592 6.64496C18.9049 6.86904 18.7928 7.06257 18.623 7.22554L13.8646 11.9924L18.623 16.7694C18.7928 16.9323 18.9049 17.1259 18.9592 17.3499C19.0136 17.574 19.0136 17.8015 18.9592 18.0324C18.9049 18.2565 18.7894 18.45 18.6128 18.613C18.4498 18.7827 18.2528 18.8981 18.0218 18.9593C17.7977 19.0136 17.5735 19.0136 17.3493 18.9593C17.132 18.9049 16.9418 18.7929 16.7787 18.6231L12 13.8563L7.23144 18.6333C7.06841 18.7895 6.87142 18.8981 6.64047 18.9593C6.4163 19.0136 6.18874 19.0136 5.95779 18.9593C5.73362 18.8981 5.54003 18.7861 5.377 18.6231Z" fill="currentColor"/>
</svg>