<svg width="24" height="24" viewBox="0 0 24 24" fill="none" xmlns="http://www.w3.org/2000/svg">
<path d="M9.94614 20.875C9.4131 20.875 8.96002 20.6537 8.5869 20.2112L3.40977 14.073C3.26319 13.9063 3.15658 13.7427 3.08995 13.5824C3.02998 13.422 3 13.2553 3 13.0821C3 12.6973 3.13326 12.3798 3.39978 12.1296C3.6663 11.8795 4.00278 11.7544 4.40922 11.7544C4.86896 11.7544 5.25541 11.9436 5.56857 12.3221L9.90616 17.6135L18.3715 4.70232C18.5447 4.44577 18.7246 4.26618 18.9112 4.16355C19.0977 4.05452 19.3309 4 19.6108 4C20.0172 4 20.3504 4.12186 20.6102 4.36559C20.8701 4.60932 21 4.9204 21 5.29882C21 5.45275 20.9733 5.60668 20.92 5.76062C20.8667 5.91455 20.7835 6.0749 20.6702 6.24166L11.3154 20.1727C10.9956 20.6409 10.5391 20.875 9.94614 20.875Z" fill="currentColor"/>
</svg>