<svg width="24" height="24" viewBox="0 0 24 24" fill="none" xmlns="http://www.w3.org/2000/svg">
<path d="M12 21C10.7574 21 9.59252 20.7641 8.50527 20.2924C7.41803 19.8265 6.46021 19.1793 5.63183 18.3509C4.8092 17.5283 4.16491 16.5762 3.69895 15.4947C3.23298 14.4075 3 13.2426 3 12C3 10.7574 3.23298 9.59252 3.69895 8.50527C4.16491 7.41803 4.8092 6.46309 5.63183 5.64046C6.46021 4.81208 7.41803 4.16491 8.50527 3.69895C9.59252 3.23298 10.7574 3 12 3C13.2426 3 14.4075 3.23298 15.4947 3.69895C16.582 4.16491 17.5369 4.81208 18.3595 5.64046C19.1822 6.46309 19.8265 7.41803 20.2924 8.50527C20.7641 9.59252 21 10.7574 21 12C21 13.2426 20.7641 14.4075 20.2924 15.4947C19.8265 16.5762 19.1822 17.5283 18.3595 18.3509C17.5369 19.1793 16.582 19.8265 15.4947 20.2924C14.4075 20.7641 13.2426 21 12 21ZM9.21285 15.6759C9.47747 15.6759 9.69895 15.5896 9.87728 15.4171L12.0086 13.2771L14.1486 15.4171C14.3154 15.5896 14.5283 15.6759 14.7872 15.6759C15.0403 15.6759 15.2531 15.5896 15.4257 15.4171C15.5983 15.2445 15.6846 15.0316 15.6846 14.7785C15.6846 14.5312 15.5954 14.3241 15.4171 14.1572L13.2685 12.0086L15.4257 9.86002C15.5983 9.68169 15.6846 9.47459 15.6846 9.23873C15.6846 8.98562 15.5983 8.77565 15.4257 8.60882C15.2589 8.43624 15.0518 8.34995 14.8044 8.34995C14.5513 8.34995 14.3384 8.43624 14.1659 8.60882L12.0086 10.7574L9.86002 8.61745C9.68169 8.44487 9.46596 8.35858 9.21285 8.35858C8.96548 8.35858 8.75551 8.44487 8.58293 8.61745C8.41611 8.78428 8.33269 8.99425 8.33269 9.24736C8.33269 9.48322 8.41898 9.68744 8.59156 9.86002L10.7488 12.0086L8.59156 14.1659C8.41898 14.3384 8.33269 14.5427 8.33269 14.7785C8.33269 15.0316 8.41611 15.2445 8.58293 15.4171C8.75551 15.5896 8.96548 15.6759 9.21285 15.6759Z" fill="currentColor" fill-opacity="0.5"/>
</svg>