<svg width="18" height="20" viewBox="0 0 18 20" fill="none" xmlns="http://www.w3.org/2000/svg">
<path d="M7.22325 16.4418V12.4507C6.89428 12.2283 6.56814 11.9644 6.24768 11.656C5.92721 11.3477 5.62092 11.0037 5.33449 10.6212C4.15755 10.2387 3.17063 9.71089 2.37939 9.03187C1.58815 8.35285 0.992595 7.53743 0.595557 6.57969C0.198519 5.62194 0 4.5278 0 3.29726C0 2.7487 0.155979 2.31875 0.47361 2.00445C0.788404 1.69014 1.21664 1.53299 1.75831 1.53299H3.41169C3.51662 1.05263 3.7435 0.676056 4.09233 0.406227C4.43832 0.136397 4.89208 0 5.4536 0H12.5464C13.1051 0 13.5588 0.136397 13.9077 0.406227C14.2537 0.676056 14.4805 1.05263 14.5883 1.53299H16.2417C16.7834 1.53299 17.2116 1.69014 17.5264 2.00445C17.8412 2.31875 18 2.7487 18 3.29726C18 4.5278 17.8015 5.62194 17.4044 6.57969C17.0074 7.53743 16.4118 8.35582 15.6206 9.03187C14.8294 9.70793 13.8396 10.2387 12.657 10.6212C12.3734 11.0037 12.0728 11.3477 11.7523 11.656C11.4319 11.9644 11.1057 12.2283 10.7767 12.4507V16.4418H7.2346H7.22325ZM1.63069 3.56708C1.63069 4.64937 1.83205 5.58339 2.23476 6.36619C2.63747 7.149 3.23302 7.76575 4.01576 8.22238C3.80306 7.73017 3.63573 7.2083 3.50811 6.66271C3.38049 6.11712 3.3181 5.54485 3.3181 4.95478V3.32987H1.86891C1.79801 3.32987 1.74129 3.35359 1.69592 3.39807C1.65054 3.44255 1.63069 3.50185 1.63069 3.57005V3.56708ZM13.9701 8.22238C14.7528 7.75982 15.3455 7.1401 15.7511 6.36026C16.1538 5.58043 16.3551 4.64937 16.3551 3.56708C16.3551 3.49889 16.3324 3.44255 16.2899 3.39511C16.2474 3.34766 16.1878 3.32691 16.1169 3.32691H14.6762V4.95181C14.6762 5.54188 14.6138 6.11416 14.4862 6.65975C14.3586 7.20533 14.1884 7.7272 13.9701 8.21942V8.22238Z" fill="currentColor"/>
<path d="M5.59808 17.4375H12.3874C13.2524 17.4375 13.9557 18.1729 13.9557 19.0772V19.9994H4.02979V19.0772C4.02979 18.1729 4.73311 17.4375 5.59808 17.4375Z" fill="currentColor"/>
</svg>