<svg xmlns="http://www.w3.org/2000/svg" xmlns:xlink="http://www.w3.org/1999/xlink" width="24" height="24" viewBox="0 0 24 24" version="1.1">
<g id="surface1">
<path fill="currentColor" d="M 20.398438 0.238281 C 21.3125 0.761719 21.917969 1.425781 22.320312 2.398438 C 22.402344 2.90625 22.402344 2.90625 22.410156 3.433594 C 22.417969 3.605469 22.421875 3.78125 22.429688 3.957031 C 22.160156 5.4375 21.125 6.570312 20.121094 7.628906 C 19.9375 7.820312 19.9375 7.820312 19.753906 8.011719 C 19.355469 8.429688 18.957031 8.84375 18.554688 9.257812 C 18.417969 9.402344 18.277344 9.542969 18.136719 9.691406 C 17.402344 10.449219 16.664062 11.203125 15.925781 11.953125 C 15.320312 12.570312 14.722656 13.191406 14.128906 13.820312 C 8.03125 20.257812 8.03125 20.257812 3.121094 20.398438 C 2.882812 20.636719 2.882812 20.636719 2.640625 20.878906 C 2.128906 20.789062 2.128906 20.789062 1.679688 20.640625 C 1.800781 19.980469 1.945312 19.359375 2.144531 18.71875 C 2.472656 17.65625 2.535156 16.558594 2.628906 15.449219 C 3.308594 13.261719 5.699219 11.535156 7.289062 9.933594 C 7.417969 9.804688 7.546875 9.671875 7.679688 9.539062 C 8.359375 8.855469 9.039062 8.171875 9.722656 7.488281 C 10.421875 6.785156 11.117188 6.078125 11.816406 5.375 C 12.355469 4.828125 12.898438 4.285156 13.441406 3.738281 C 13.699219 3.480469 13.953125 3.21875 14.210938 2.960938 C 14.570312 2.59375 14.933594 2.234375 15.292969 1.871094 C 15.5 1.667969 15.703125 1.460938 15.914062 1.25 C 17.292969 0.121094 18.671875 -0.277344 20.398438 0.238281 Z M 16.558594 2.878906 C 16.832031 3.695312 17.082031 3.898438 17.730469 4.441406 C 18.324219 4.941406 18.898438 5.441406 19.441406 6 C 20.457031 5.195312 20.457031 5.195312 21.007812 4.070312 C 21.042969 3.269531 20.9375 2.730469 20.503906 2.054688 C 18.777344 0.949219 17.828125 1.550781 16.558594 2.878906 Z M 14.632812 4.664062 C 14.457031 4.839844 14.285156 5.015625 14.109375 5.195312 C 13.910156 5.394531 13.714844 5.589844 13.511719 5.792969 C 13.300781 6.007812 13.089844 6.226562 12.875 6.449219 C 12.65625 6.667969 12.441406 6.886719 12.214844 7.113281 C 11.640625 7.695312 11.066406 8.277344 10.492188 8.863281 C 9.90625 9.460938 9.320312 10.054688 8.730469 10.652344 C 7.578125 11.816406 6.425781 12.988281 5.28125 14.160156 C 5.46875 14.347656 5.660156 14.539062 5.855469 14.734375 C 6.308594 15.1875 6.726562 15.628906 7.125 16.125 C 7.648438 16.785156 7.648438 16.785156 8.160156 17.28125 C 11.488281 13.953125 14.8125 10.628906 18.238281 7.199219 C 17.53125 5.785156 17.074219 5.007812 15.617188 4.351562 C 15.089844 4.265625 15.089844 4.265625 14.632812 4.664062 Z M 4.320312 15.601562 C 3.886719 16.035156 3.988281 16.707031 3.945312 17.296875 C 3.910156 17.765625 3.875 18.234375 3.839844 18.71875 C 4.871094 18.5625 5.898438 18.402344 6.960938 18.238281 C 6.28125 16.824219 5.734375 16.28125 4.320312 15.601562 Z M 4.320312 15.601562 "/>
<path fill="currentColor" d="M 9.371094 22.527344 C 9.683594 22.527344 9.992188 22.527344 10.3125 22.527344 C 10.65625 22.527344 10.996094 22.527344 11.339844 22.527344 C 11.6875 22.527344 12.035156 22.527344 12.382812 22.527344 C 13.113281 22.527344 13.847656 22.527344 14.578125 22.527344 C 15.515625 22.53125 16.453125 22.527344 17.390625 22.527344 C 18.109375 22.527344 18.832031 22.527344 19.550781 22.527344 C 19.894531 22.527344 20.242188 22.527344 20.585938 22.527344 C 21.070312 22.527344 21.554688 22.527344 22.039062 22.527344 C 22.449219 22.527344 22.449219 22.527344 22.871094 22.53125 C 23.519531 22.558594 23.519531 22.558594 24 22.800781 C 23.921875 23.195312 23.839844 23.59375 23.761719 24 C 18.53125 24 13.304688 24 7.921875 24 C 7.839844 23.605469 7.761719 23.207031 7.679688 22.800781 C 8.113281 22.363281 8.785156 22.53125 9.371094 22.527344 Z M 9.371094 22.527344 "/>
<path fill="currentColor" d="M 0.929688 22.503906 C 1.109375 22.507812 1.289062 22.511719 1.472656 22.511719 C 1.761719 22.515625 1.761719 22.515625 2.058594 22.519531 C 2.359375 22.523438 2.359375 22.523438 2.671875 22.53125 C 2.976562 22.535156 2.976562 22.535156 3.289062 22.535156 C 3.792969 22.542969 4.296875 22.550781 4.800781 22.558594 C 5.054688 23.011719 5.054688 23.011719 5.28125 23.519531 C 5.199219 23.679688 5.121094 23.835938 5.039062 24 C 3.457031 24 1.871094 24 0.238281 24 C 0.160156 23.683594 0.0820312 23.367188 0 23.039062 C 0.480469 22.558594 0.480469 22.558594 0.929688 22.503906 Z M 0.929688 22.503906 "/>
</g>
</svg>