<svg xmlns="http://www.w3.org/2000/svg" xmlns:xlink="http://www.w3.org/1999/xlink" width="24px" height="24px" viewBox="0 0 24 24" version="1.1">
<g id="surface1">
<path fill="currentColor" fill-rule="evenodd" d="M 2.441406 8.761719 L 21.703125 8.761719 L 21.703125 9.386719 L 2.441406 9.386719 Z M 17.167969 22.046875 L 16.519531 22.046875 L 16.519531 22.933594 L 21.703125 22.933594 L 21.703125 9.859375 L 2.441406 9.859375 L 2.441406 22.933594 L 7.59375 22.933594 L 7.59375 22.046875 L 7.042969 22.046875 C 6.667969 22.042969 6.484375 21.839844 6.457031 21.488281 L 6.457031 13.878906 C 6.457031 13.054688 6.945312 12.453125 7.925781 12.082031 C 8.675781 11.945312 9.820312 11.859375 11.054688 11.824219 L 11.054688 11.636719 L 11.394531 11.636719 L 11.394531 11.261719 C 11.394531 10.917969 11.679688 10.632812 12.03125 10.632812 L 12.101562 10.632812 C 12.453125 10.632812 12.742188 10.917969 12.742188 11.261719 L 12.742188 11.636719 L 13.082031 11.636719 L 13.082031 11.820312 C 14.292969 11.847656 15.429688 11.933594 16.210938 12.082031 C 17.191406 12.453125 17.675781 13.054688 17.675781 13.878906 L 17.675781 21.410156 C 17.675781 21.878906 17.523438 22.046875 17.167969 22.046875 Z M 14.648438 22.933594 L 14.648438 22.046875 L 9.46875 22.046875 L 9.46875 22.933594 Z M 11.699219 11.617188 L 11.570312 11.617188 L 11.570312 11.390625 C 11.570312 11.214844 11.566406 11.0625 11.71875 10.90625 C 11.761719 10.863281 11.8125 10.828125 11.867188 10.800781 C 11.738281 11.054688 11.695312 11.324219 11.699219 11.617188 Z M 10.867188 20.84375 L 13.269531 20.84375 C 13.332031 20.84375 13.386719 20.894531 13.386719 20.957031 L 13.386719 21.355469 C 13.386719 21.421875 13.332031 21.472656 13.269531 21.472656 L 10.867188 21.472656 C 10.800781 21.472656 10.75 21.421875 10.75 21.355469 L 10.75 20.957031 C 10.75 20.894531 10.800781 20.84375 10.867188 20.84375 Z M 15.855469 19.25 C 16.277344 19.25 16.617188 19.589844 16.617188 20.007812 C 16.617188 20.421875 16.277344 20.761719 15.855469 20.761719 C 15.433594 20.761719 15.089844 20.421875 15.089844 20.007812 C 15.089844 19.589844 15.433594 19.25 15.855469 19.25 Z M 8.28125 19.25 C 8.703125 19.25 9.042969 19.589844 9.042969 20.007812 C 9.042969 20.421875 8.703125 20.761719 8.28125 20.761719 C 7.859375 20.761719 7.515625 20.421875 7.515625 20.007812 C 7.515625 19.589844 7.859375 19.25 8.28125 19.25 Z M 7.28125 13.804688 L 16.816406 13.804688 C 16.929688 13.804688 17.027344 13.898438 17.027344 14.011719 L 17.027344 17.773438 C 17.027344 17.886719 16.933594 17.949219 16.816406 17.980469 C 13.820312 18.882812 10.277344 18.84375 7.28125 17.980469 C 7.164062 17.949219 7.070312 17.886719 7.070312 17.773438 L 7.070312 14.011719 C 7.070312 13.898438 7.164062 13.804688 7.28125 13.804688 Z M 1.371094 9.269531 L 0.535156 9.269531 C 0.238281 9.269531 0 9.035156 0 8.742188 L 0 6.453125 C 0.00390625 6.265625 0.105469 6.082031 0.285156 5.988281 L 11.460938 0.0859375 C 11.617188 -0.00390625 11.816406 -0.0195312 11.988281 0.0703125 L 23.683594 6.15625 C 23.867188 6.238281 24 6.425781 24 6.640625 L 24 8.742188 C 24 9.035156 23.761719 9.269531 23.464844 9.269531 L 22.769531 9.269531 L 22.769531 23.460938 C 22.769531 23.753906 22.53125 23.988281 22.238281 23.988281 L 1.90625 23.988281 C 1.609375 23.988281 1.371094 23.753906 1.371094 23.460938 Z M 10.742188 4.644531 C 10.609375 3.464844 11.304688 2.636719 12.613281 2.164062 C 11.8125 3.191406 13.296875 4.304688 13.378906 5.371094 C 13.570312 5.046875 13.675781 4.613281 13.699219 4.039062 C 14.5625 5.375 14.035156 7.464844 12.421875 7.699219 C 12.507812 7.664062 12.597656 7.621094 12.683594 7.5625 C 13.097656 7.292969 13.328125 6.769531 13.035156 6.113281 C 13.019531 6.371094 12.929688 6.699219 12.746094 6.902344 C 12.945312 5.757812 11.871094 5.621094 11.867188 4.542969 C 11.234375 4.871094 11.203125 5.808594 11.429688 6.386719 C 11.335938 6.335938 11.085938 6.023438 11.0625 5.824219 C 10.605469 6.398438 10.878906 7.277344 11.464844 7.628906 C 11.355469 7.597656 11.246094 7.550781 11.144531 7.5 C 10.359375 7.082031 9.890625 6.179688 9.890625 5.316406 C 9.890625 4.765625 10.128906 4.273438 10.4375 3.882812 C 10.476562 4.265625 10.566406 4.550781 10.742188 4.644531 Z M 10.742188 4.644531"/>
</g>
</svg>