<svg width="24" height="24" viewBox="0 0 24 24" fill="none" xmlns="http://www.w3.org/2000/svg">
<path fill-rule="evenodd" clip-rule="evenodd" d="M5.74086 11.9996C5.74086 11.2851 5.85945 10.6001 6.07137 9.95759L2.36403 7.12663C1.64147 8.59359 1.23447 10.2467 1.23447 11.9996C1.23447 13.7512 1.64112 15.4031 2.36248 16.8692L6.06776 14.0327C5.8579 13.3932 5.74086 12.7107 5.74086 11.9996Z" fill="#FBBC05"/>
<path fill-rule="evenodd" clip-rule="evenodd" d="M12.2503 5.50003C13.8025 5.50003 15.2045 6.05003 16.3061 6.94997L19.5105 3.75C17.5578 2.04998 15.0543 1 12.2503 1C7.89709 1 4.15571 3.48944 2.36426 7.127L6.07143 9.95795C6.92565 7.36505 9.3606 5.50003 12.2503 5.50003Z" fill="#EA4335"/>
<path fill-rule="evenodd" clip-rule="evenodd" d="M12.2503 18.4989C9.36077 18.4989 6.92582 16.6339 6.0716 14.041L2.36426 16.8715C4.15571 20.5095 7.89709 22.999 12.2503 22.999C14.9371 22.999 17.5023 22.0449 19.4275 20.2574L15.9085 17.537C14.9156 18.1624 13.6652 18.4989 12.2503 18.4989Z" fill="#34A853"/>
<path fill-rule="evenodd" clip-rule="evenodd" d="M22.7656 11.9983C22.7656 11.3483 22.6654 10.6482 22.5152 9.99837H12.2508V14.2483H18.1592C17.8637 15.6974 17.0597 16.8113 15.909 17.5363L19.4279 20.2567C21.4502 18.3799 22.7656 15.5838 22.7656 11.9983Z" fill="#4285F4"/>
</svg>