<svg width="24" height="24" viewBox="0 0 24 24" fill="none" xmlns="http://www.w3.org/2000/svg">
<g clip-path="url(#clip0_543_23083)">
<path d="M12.0041 0C6.9939 0 5.52846 0.00609756 5.2439 0.0284553C4.21545 0.113821 3.5752 0.276423 2.88008 0.621951C2.3435 0.888211 1.9187 1.19715 1.50203 1.63211C0.739837 2.42276 0.278455 3.39431 0.109756 4.55081C0.0284553 5.11179 0.00609756 5.22561 0 8.0935C0 9.04878 0 10.3049 0 11.9919C0 16.998 0.00609756 18.4614 0.0304878 18.7459C0.113821 19.7459 0.270325 20.376 0.603659 21.065C1.2378 22.3821 2.45122 23.3719 3.88008 23.7419C4.37398 23.8699 4.92073 23.939 5.62195 23.9736C5.9187 23.9858 8.94715 23.9959 11.9797 23.9959C15.0122 23.9959 18.0407 23.9919 18.3313 23.9776C19.1443 23.939 19.6159 23.876 20.1362 23.7419C21.5732 23.3699 22.7642 22.3963 23.4126 21.0589C23.7378 20.3862 23.9045 19.7337 23.9776 18.7846C23.9939 18.5772 24 15.2825 24 11.9898C24 8.69715 23.9919 5.40854 23.9756 5.20122C23.9004 4.2378 23.7337 3.58943 23.3984 2.90447C23.122 2.3435 22.815 1.9248 22.372 1.49797C21.5772 0.739837 20.6077 0.278455 19.4512 0.111789C18.8902 0.0304878 18.7785 0.00609756 15.9106 0.00203252H12.0041V0Z" fill="url(#paint0_radial_543_23083)"/>
<path d="M12.0041 0C6.9939 0 5.52846 0.00609756 5.2439 0.0304878C4.21545 0.115854 3.5752 0.278455 2.88008 0.623984C2.3435 0.890244 1.9187 1.19919 1.50203 1.63415C0.739837 2.4248 0.278455 3.39634 0.109756 4.55285C0.0284553 5.11382 0.00609756 5.22764 0 8.0935C0 9.04878 0 10.3069 0 11.9939C0 16.998 0.00609756 18.4634 0.0304878 18.7459C0.113821 19.7459 0.270325 20.376 0.603659 21.065C1.2378 22.3821 2.45122 23.3719 3.88008 23.7419C4.37398 23.8699 4.92073 23.939 5.62195 23.9736C5.9187 23.9858 8.94715 23.9959 11.9797 23.9959C15.0122 23.9959 18.0407 23.9919 18.3313 23.9776C19.1443 23.939 19.6159 23.876 20.1362 23.7419C21.5732 23.3699 22.7642 22.3963 23.4126 21.0589C23.7378 20.3862 23.9045 19.7337 23.9776 18.7846C23.9939 18.5772 24 15.2825 24 11.9898C24 8.69715 23.9919 5.40854 23.9756 5.20122C23.9004 4.2378 23.7337 3.58943 23.3984 2.90447C23.122 2.3435 22.815 1.9248 22.372 1.49797C21.5772 0.739837 20.6077 0.278455 19.4512 0.111789C18.8902 0.0304878 18.7785 0.00609756 15.9085 0H12.002H12.0041Z" fill="url(#paint1_radial_543_23083)"/>
<path d="M12 3.13821C9.59349 3.13821 9.29268 3.14838 8.34756 3.19106C7.40447 3.23374 6.76016 3.38415 6.19715 3.60366C5.61382 3.82927 5.11992 4.13212 4.62805 4.62602C4.13618 5.11789 3.83333 5.61179 3.60569 6.19512C3.38618 6.75813 3.23577 7.40244 3.19309 8.34553C3.15041 9.29065 3.14024 9.5935 3.14024 11.998C3.14024 14.4024 3.15041 14.7053 3.19309 15.6504C3.23577 16.5935 3.38618 17.2378 3.60569 17.8008C3.8313 18.3841 4.13415 18.8781 4.62805 19.3699C5.11992 19.8618 5.61382 20.1667 6.19715 20.3923C6.76016 20.6118 7.40447 20.7602 8.34756 20.8049C9.29268 20.8476 9.59349 20.8577 12 20.8577C14.4065 20.8577 14.7073 20.8476 15.6524 20.8049C16.5955 20.7622 17.2398 20.6118 17.8049 20.3923C18.3882 20.1667 18.8801 19.8618 19.374 19.3699C19.8659 18.8781 20.1687 18.3841 20.3963 17.8008C20.6138 17.2378 20.7642 16.5935 20.8089 15.6504C20.8516 14.7053 20.8618 14.4045 20.8618 11.998C20.8618 9.59147 20.8516 9.29065 20.8089 8.34553C20.7642 7.40244 20.6159 6.75813 20.3963 6.19512C20.1687 5.61179 19.8659 5.11789 19.374 4.62602C18.8821 4.13415 18.3882 3.8313 17.8049 3.60366C17.2398 3.38415 16.5955 3.23578 15.6524 3.19106C14.7073 3.14838 14.4065 3.13821 12 3.13821ZM11.2053 4.73374C11.4411 4.73374 11.7053 4.73374 12 4.73374C14.3659 4.73374 14.6463 4.74187 15.5793 4.78456C16.4431 4.82317 16.9126 4.96748 17.2236 5.08943C17.6362 5.25 17.9309 5.44106 18.2419 5.75203C18.5528 6.06301 18.7439 6.35773 18.9045 6.77033C19.0264 7.0813 19.1707 7.55082 19.2093 8.41464C19.252 9.3496 19.2602 9.63008 19.2602 11.9939C19.2602 14.3577 19.25 14.6382 19.2093 15.5732C19.1707 16.437 19.0264 16.9065 18.9045 17.2175C18.7439 17.6301 18.5508 17.9248 18.2419 18.2358C17.9309 18.5467 17.6382 18.7378 17.2236 18.8984C16.9126 19.0203 16.4431 19.1646 15.5793 19.2033C14.6443 19.2459 14.3638 19.2541 12 19.2541C9.63618 19.2541 9.35366 19.2439 8.42073 19.2033C7.55691 19.1626 7.0874 19.0183 6.77642 18.8984C6.36382 18.7378 6.06707 18.5467 5.75813 18.2358C5.44715 17.9248 5.2561 17.6321 5.09553 17.2175C4.97358 16.9065 4.82927 16.437 4.79065 15.5732C4.74797 14.6382 4.73984 14.3577 4.73984 11.9919C4.73984 9.62602 4.74797 9.34756 4.79065 8.4126C4.82927 7.54878 4.97358 7.07927 5.09553 6.7683C5.2561 6.35569 5.44919 6.05895 5.75813 5.75C6.06911 5.43903 6.36382 5.24797 6.77642 5.0874C7.08943 4.96545 7.55691 4.82114 8.42073 4.78252C9.2378 4.74594 9.55488 4.73374 11.2053 4.73171V4.73374ZM16.7297 6.20529C16.1423 6.20529 15.6667 6.6809 15.6667 7.26829C15.6667 7.85569 16.1423 8.3313 16.7297 8.3313C17.3171 8.3313 17.7927 7.85569 17.7927 7.26829C17.7927 6.6809 17.3171 6.20529 16.7297 6.20529ZM12 7.44716C9.4878 7.44716 7.44919 9.48374 7.44919 11.998C7.44919 14.5122 9.48577 16.5468 12 16.5468C14.5142 16.5468 16.5488 14.5102 16.5488 11.998C16.5488 9.48577 14.5122 7.44716 12 7.44716ZM12 9.04472C13.6301 9.04472 14.9533 10.3659 14.9533 11.998C14.9533 13.6301 13.6301 14.9512 12 14.9512C10.3699 14.9512 9.04675 13.6281 9.04675 11.998C9.04675 10.3679 10.3699 9.04472 12 9.04472Z" fill="white"/>
</g>
<defs>
<radialGradient id="paint0_radial_543_23083" cx="0" cy="0" r="1" gradientUnits="userSpaceOnUse" gradientTransform="translate(5.87008 25.4302) rotate(-90) scale(23.756 22.0763)">
<stop stop-color="#FFDD46"/>
<stop offset="0.1" stop-color="#FFDD46"/>
<stop offset="0.5" stop-color="#FF533A"/>
<stop offset="1" stop-color="#E734AF"/>
</radialGradient>
<radialGradient id="paint1_radial_543_23083" cx="0" cy="0" r="1" gradientUnits="userSpaceOnUse" gradientTransform="translate(-4.19448 1.58898) rotate(78.68) scale(10.6782 43.7926)">
<stop stop-color="#0072CB"/>
<stop offset="0.13" stop-color="#0072CB"/>
<stop offset="1" stop-color="#7800FF" stop-opacity="0"/>
</radialGradient>
<clipPath id="clip0_543_23083">
<rect width="24" height="23.9939" fill="white"/>
</clipPath>
</defs>
</svg>