<svg xmlns="http://www.w3.org/2000/svg" xmlns:xlink="http://www.w3.org/1999/xlink" width="24px" height="24px" viewBox="0 0 24 23" version="1.1">
<g id="surface1">
<path style=" stroke:none;fill-rule:evenodd;fill:rgb(3.921569%,40.000001%,76.078433%);fill-opacity:1;" d="M 5.441406 0 L 18.558594 0 C 21.535156 0.0078125 23.949219 2.339844 23.957031 5.21875 L 23.957031 17.785156 C 23.949219 20.660156 21.535156 22.992188 18.558594 23 L 5.441406 23 C 2.464844 22.992188 0.0507812 20.660156 0.0429688 17.785156 L 0.0429688 5.21875 C 0.0507812 2.339844 2.464844 0.0078125 5.441406 0 Z M 5.441406 0 "/>
<path style=" stroke:none;fill-rule:evenodd;fill:rgb(100%,100%,100%);fill-opacity:1;" d="M 9.617188 8.914062 L 12.636719 8.914062 L 12.636719 10.417969 L 12.679688 10.417969 C 13.105469 9.691406 14.132812 8.914062 15.667969 8.914062 C 18.855469 8.914062 19.445312 10.832031 19.445312 13.328125 L 19.445312 18.605469 L 16.296875 18.605469 L 16.296875 13.914062 C 16.296875 12.839844 16.273438 11.460938 14.65625 11.460938 C 13.042969 11.460938 12.765625 12.628906 12.765625 13.839844 L 12.765625 18.613281 L 9.617188 18.613281 Z M 7.828125 5.976562 C 7.828125 6.851562 7.09375 7.5625 6.1875 7.5625 C 5.285156 7.5625 4.550781 6.851562 4.550781 5.976562 C 4.550781 5.105469 5.285156 4.394531 6.1875 4.394531 C 7.09375 4.394531 7.824219 5.105469 7.828125 5.976562 Z M 4.554688 8.914062 L 7.828125 8.914062 L 7.828125 18.605469 L 4.554688 18.605469 Z M 4.554688 8.914062 "/>
</g>
</svg>
