<?xml version="1.0" encoding="UTF-8"?>
<svg xmlns="http://www.w3.org/2000/svg" xmlns:xlink="http://www.w3.org/1999/xlink" width="24px" height="24px" viewBox="0 0 24 24" version="1.1">
<g id="surface1">
<path fill="currentColor" fill-rule="evenodd" d="M 4.285156 11.90625 C 4.285156 18.570312 4.476562 22.382812 4.761719 22.382812 C 5.046875 22.382812 5.238281 18.570312 5.238281 11.90625 C 5.238281 5.238281 5.046875 1.429688 4.761719 1.429688 C 4.476562 1.429688 4.285156 5.238281 4.285156 11.90625 Z M 11.429688 2.855469 C 11.429688 3.617188 11.667969 4.285156 11.90625 4.285156 C 12.191406 4.285156 12.382812 3.617188 12.382812 2.855469 C 12.382812 2.046875 12.191406 1.429688 11.90625 1.429688 C 11.667969 1.429688 11.429688 2.046875 11.429688 2.855469 Z M 18.570312 11.90625 C 18.570312 18.570312 18.761719 22.382812 19.046875 22.382812 C 19.332031 22.382812 19.523438 18.570312 19.523438 11.90625 C 19.523438 5.238281 19.332031 1.429688 19.046875 1.429688 C 18.761719 1.429688 18.570312 5.238281 18.570312 11.90625 Z M 11.429688 7.144531 C 11.429688 7.90625 11.667969 8.570312 11.90625 8.570312 C 12.191406 8.570312 12.382812 7.90625 12.382812 7.144531 C 12.382812 6.332031 12.191406 5.714844 11.90625 5.714844 C 11.667969 5.714844 11.429688 6.332031 11.429688 7.144531 Z M 11.046875 10.570312 C 10.714844 10.90625 10.476562 12 10.476562 13.09375 C 10.476562 14.855469 10.285156 15.09375 8.332031 16.285156 C 7.144531 17 6.191406 17.953125 6.191406 18.382812 C 6.191406 19.144531 6.238281 19.144531 9.429688 18.285156 C 10.332031 18.046875 10.476562 18.191406 10.476562 19.238281 C 10.476562 19.953125 10.144531 20.617188 9.761719 20.761719 C 9.382812 20.953125 9.046875 21.382812 9.046875 21.761719 C 9.046875 22.285156 9.332031 22.382812 10.144531 22.144531 C 11.476562 21.714844 12.332031 21.714844 13.714844 22.144531 C 14.476562 22.382812 14.761719 22.285156 14.761719 21.761719 C 14.761719 21.382812 14.429688 20.953125 14.046875 20.761719 C 13.667969 20.617188 13.332031 19.953125 13.332031 19.238281 C 13.332031 18.191406 13.476562 18.046875 14.429688 18.285156 C 17.570312 19.144531 17.617188 19.144531 17.617188 18.382812 C 17.617188 17.953125 16.667969 17 15.476562 16.285156 C 13.523438 15.09375 13.332031 14.855469 13.332031 13.09375 C 13.332031 10.523438 12.285156 9.332031 11.046875 10.570312 Z M 12.382812 13.238281 C 12.382812 15.191406 12.570312 15.617188 13.714844 16.332031 L 15 17.144531 L 13.714844 16.855469 C 12.429688 16.570312 12.382812 16.617188 12.382812 18.523438 C 12.382812 19.617188 12.191406 20.476562 11.90625 20.476562 C 11.667969 20.476562 11.429688 19.617188 11.429688 18.523438 C 11.429688 16.617188 11.382812 16.570312 10.144531 16.855469 L 8.808594 17.144531 L 10.144531 16.332031 C 11.238281 15.617188 11.429688 15.191406 11.429688 13.238281 C 11.429688 11.953125 11.667969 10.953125 11.90625 10.953125 C 12.191406 10.953125 12.382812 11.953125 12.382812 13.238281 Z"/>
</g>
</svg>