<svg width="24" height="24" viewBox="0 0 24 24" fill="none" xmlns="http://www.w3.org/2000/svg">
<g clip-path="url(#clip0_566_24982)">
<path d="M3.95 17.81C4.06 17.57 4.12 17.36 4.23 17.19C4.46 16.83 4.71 16.49 4.96 16.15C5.06 16.01 5.07 15.91 5 15.75C4.78 15.28 4.58 14.79 4.4 14.3C4.34 14.14 4.27 14.06 4.09 14.03C3.67 13.97 3.26 13.89 2.84 13.81C2.29 13.72 2 13.39 2 12.84C2 12.27 2 11.71 2 11.14C2 10.59 2.3 10.26 2.84 10.17C3.27 10.1 3.7 10.03 4.12 9.94C4.22 9.92 4.34 9.81 4.38 9.72C4.6 9.22 4.81 8.72 5 8.21C5.04 8.11 5.03 7.96 4.97 7.87C4.74 7.51 4.49 7.17 4.24 6.83C3.9 6.33 3.93 5.92 4.34 5.5C4.72 5.11 5.11 4.72 5.5 4.34C5.91 3.93 6.33 3.9 6.81 4.23C7.16 4.47 7.51 4.71 7.85 4.96C7.98 5.05 8.07 5.07 8.23 5C8.71 4.78 9.21 4.58 9.71 4.39C9.86 4.33 9.94 4.27 9.96 4.1C10.02 3.67 10.1 3.24 10.18 2.82C10.28 2.28 10.61 1.99 11.16 1.99C11.72 1.99 12.27 1.99 12.83 1.99C13.4 1.99 13.72 2.28 13.82 2.85C13.9 3.28 13.96 3.71 14.05 4.13C14.07 4.22 14.17 4.33 14.25 4.37C14.76 4.6 15.27 4.81 15.78 5.01C15.87 5.05 16.02 5.04 16.1 4.99C16.46 4.75 16.81 4.49 17.17 4.25C17.65 3.92 18.06 3.95 18.48 4.35C18.88 4.74 19.27 5.13 19.66 5.53C20.05 5.93 20.08 6.35 19.77 6.81C19.53 7.16 19.29 7.51 19.04 7.85C18.94 7.98 18.92 8.09 19 8.25C19.22 8.72 19.42 9.21 19.6 9.7C19.66 9.86 19.73 9.94 19.91 9.97C20.34 10.03 20.77 10.11 21.19 10.19C21.72 10.29 22 10.62 22.01 11.16C22.01 11.73 22.01 12.29 22.01 12.86C22.01 13.4 21.72 13.73 21.2 13.83C20.76 13.91 20.32 13.97 19.89 14.07C19.79 14.09 19.67 14.19 19.63 14.29C19.41 14.79 19.2 15.29 19.01 15.8C18.97 15.9 18.98 16.05 19.04 16.14C19.27 16.5 19.54 16.85 19.78 17.21C20.11 17.68 20.07 18.1 19.66 18.52C19.28 18.91 18.89 19.3 18.5 19.68C18.08 20.09 17.67 20.12 17.19 19.79C16.84 19.55 16.49 19.31 16.15 19.05C16.02 18.95 15.92 18.94 15.77 19.01C15.29 19.23 14.79 19.43 14.29 19.62C14.14 19.68 14.06 19.74 14.04 19.9C13.98 20.33 13.9 20.76 13.82 21.18C13.72 21.72 13.39 22.01 12.84 22.01C12.28 22.01 11.73 22.01 11.17 22.01C10.6 22.01 10.28 21.72 10.18 21.15C10.11 20.74 10.03 20.34 9.97 19.93C9.94 19.74 9.86 19.66 9.69 19.6C9.2 19.42 8.72 19.22 8.24 19C8.09 18.93 7.99 18.94 7.86 19.03C7.52 19.28 7.17 19.52 6.82 19.76C6.34 20.09 5.93 20.06 5.51 19.66C5.11 19.27 4.71 18.89 4.34 18.48C4.17 18.3 4.08 18.05 3.95 17.82V17.81ZM8.36 11.99C8.36 14 9.99 15.64 11.99 15.64C13.98 15.64 15.62 14.02 15.63 12.03C15.64 10.02 14.02 8.37 12.02 8.37C10.01 8.37 8.37 9.99 8.36 11.99Z" fill="currentColor"/>
</g>
<defs>
<clipPath id="clip0_566_24982">
<rect width="24" height="24" fill="currentColor"/>
</clipPath>
</defs>
</svg>