<svg width="24" height="24" viewBox="0 0 24 24" fill="none" xmlns="http://www.w3.org/2000/svg">
<g clip-path="url(#clip0_543_23084)">
<path d="M12.0041 0C6.9939 0 5.52846 0.00609756 5.2439 0.0284553C4.21545 0.113821 3.5752 0.276423 2.88008 0.621951C2.3435 0.888211 1.9187 1.19715 1.50203 1.63211C0.739837 2.42276 0.278455 3.39431 0.109756 4.55081C0.0284553 5.11179 0.00609756 5.22561 0 8.0935C0 9.04878 0 10.3049 0 11.9919C0 16.998 0.00609756 18.4614 0.0304878 18.7459C0.113821 19.7459 0.270325 20.376 0.603659 21.065C1.2378 22.3821 2.45122 23.3719 3.88008 23.7419C4.37398 23.8699 4.92073 23.939 5.62195 23.9736C5.9187 23.9858 8.94715 23.9959 11.9797 23.9959C15.0122 23.9959 18.0407 23.9919 18.3313 23.9776C19.1443 23.939 19.6159 23.876 20.1362 23.7419C21.5732 23.3699 22.7642 22.3963 23.4126 21.0589C23.7378 20.3862 23.9045 19.7337 23.9776 18.7846C23.9939 18.5772 24 15.2825 24 11.9898C24 8.69715 23.9919 5.40854 23.9756 5.20122C23.9004 4.2378 23.7337 3.58943 23.3984 2.90447C23.122 2.3435 22.815 1.9248 22.372 1.49797C21.5772 0.739837 20.6077 0.278455 19.4512 0.111789C18.8902 0.0304878 18.7785 0.00609756 15.9106 0.00203252H12.0041V0Z" fill="url(#paint0_radial_543_23084)"/>
<path d="M12.0041 0C6.9939 0 5.52846 0.00609756 5.2439 0.0284553C4.21545 0.113821 3.5752 0.276423 2.88008 0.621951C2.3435 0.888211 1.9187 1.19715 1.50203 1.63211C0.739837 2.42276 0.278455 3.39431 0.109756 4.55081C0.0284553 5.11179 0.00609756 5.22561 0 8.0935C0 9.04878 0 10.3049 0 11.9919C0 16.998 0.00609756 18.4614 0.0304878 18.7459C0.113821 19.7459 0.270325 20.376 0.603659 21.065C1.2378 22.3821 2.45122 23.3719 3.88008 23.7419C4.37398 23.8699 4.92073 23.939 5.62195 23.9736C5.9187 23.9858 8.94715 23.9959 11.9797 23.9959C15.0122 23.9959 18.0407 23.9919 18.3313 23.9776C19.1443 23.939 19.6159 23.876 20.1362 23.7419C21.5732 23.3699 22.7642 22.3963 23.4126 21.0589C23.7378 20.3862 23.9045 19.7337 23.9776 18.7846C23.9939 18.5772 24 15.2825 24 11.9898C24 8.69715 23.9919 5.40854 23.9756 5.20122C23.9004 4.2378 23.7337 3.58943 23.3984 2.90447C23.122 2.3435 22.815 1.9248 22.372 1.49797C21.5772 0.739837 20.6077 0.278455 19.4512 0.111789C18.8902 0.0284553 18.7785 0.00406504 15.9085 0H12.002H12.0041Z" fill="black"/>
<path d="M5.32317 17.8171L5.37601 17.9675C5.36991 17.9512 5.34959 17.8984 5.32317 17.8171ZM7.44715 14.3841C7.54268 13.5691 7.86178 13.1138 8.46544 12.6463C9.32926 12.0142 10.4065 12.3719 10.4065 12.3719V10.248C10.6687 10.2419 10.9309 10.2581 11.189 10.2967V13.0284C11.189 13.0284 10.1118 12.6728 9.24796 13.3028C8.64634 13.7703 8.3252 14.2256 8.22967 15.0406C8.22561 15.4817 8.30487 16.061 8.67073 16.5589C8.57926 16.5102 8.4878 16.4532 8.39227 16.3923C7.59146 15.8293 7.44308 14.9817 7.44715 14.3841ZM15.6402 6.32316C15.0488 5.64633 14.8232 4.95934 14.7398 4.47763H15.4858C15.4858 4.47763 15.3394 5.73983 16.4207 6.97966L16.437 6.99592C16.1423 6.8069 15.874 6.57722 15.6382 6.32113L15.6402 6.32316ZM19.2358 8.24592V10.9228C19.2358 10.9228 18.2845 10.8841 17.5772 10.6971C16.5915 10.4349 15.9614 10.0325 15.9614 10.0325C15.9614 10.0325 15.5224 9.74389 15.4898 9.7256V15.2541C15.4898 15.561 15.4085 16.3313 15.1626 16.9715C14.8415 17.8089 14.3455 18.3618 14.2541 18.4736C14.2541 18.4736 13.6484 19.2195 12.5854 19.7195C11.626 20.1707 10.7825 20.1606 10.5305 20.1707C10.5305 20.1707 9.0752 20.2297 7.76219 19.3435C7.47764 19.1463 7.21341 18.9248 6.96951 18.6788L6.9756 18.6849C8.28658 19.5752 9.7439 19.5122 9.7439 19.5122C9.99593 19.502 10.8394 19.5122 11.7988 19.061C12.8618 18.561 13.4675 17.815 13.4675 17.815C13.5589 17.7032 14.0569 17.1504 14.376 16.313C14.6219 15.6728 14.7032 14.9024 14.7032 14.5955V9.06909C14.7398 9.08942 15.1748 9.376 15.1748 9.376C15.1748 9.376 15.8069 9.77844 16.7906 10.0406C17.498 10.2276 18.4492 10.2662 18.4492 10.2662V8.16869C18.7764 8.24389 19.0549 8.26422 19.2337 8.24389L19.2358 8.24592Z" fill="#FF1753"/>
<path d="M18.4492 8.16869V10.2662C18.4492 10.2662 17.498 10.2276 16.7906 10.0406C15.8049 9.77844 15.1748 9.376 15.1748 9.376C15.1748 9.376 14.7358 9.08739 14.7032 9.06909V14.5975C14.7032 14.9045 14.6219 15.6748 14.376 16.315C14.0549 17.1524 13.5589 17.7053 13.4675 17.8171C13.4675 17.8171 12.8618 18.563 11.7988 19.063C10.8394 19.5142 9.99593 19.5041 9.7439 19.5142C9.7439 19.5142 8.28862 19.5732 6.97561 18.687L6.96951 18.6809C6.8313 18.5406 6.70122 18.3923 6.57927 18.2398C6.16057 17.7073 5.90447 17.0793 5.83943 16.8984V16.8943C5.73374 16.5833 5.51829 15.8313 5.54878 15.1077C5.60162 13.8293 6.03252 13.0406 6.14837 12.8435C6.44918 12.3069 6.84553 11.8252 7.30894 11.4228C7.72154 11.0752 8.18902 10.7988 8.68902 10.6057C9.2317 10.376 9.81504 10.2561 10.4024 10.2459V12.3699C10.4024 12.3699 9.3252 12.0142 8.46138 12.6443C7.85975 13.1118 7.53862 13.5671 7.44309 14.3821C7.43902 14.9817 7.5874 15.8272 8.39227 16.3943C8.4878 16.4573 8.57927 16.5122 8.67073 16.561C8.81097 16.75 8.98171 16.9167 9.17683 17.0549C9.96545 17.5752 10.6219 17.6118 11.4675 17.2744C12.0305 17.0488 12.4532 16.5406 12.6484 15.9756C12.7724 15.6219 12.7703 15.2683 12.7703 14.9024V4.47763H14.7337C14.815 4.95934 15.0386 5.64633 15.6341 6.32316C15.8719 6.57926 16.1402 6.8069 16.4329 6.99796C16.5183 7.09348 16.9593 7.5508 17.5285 7.83535C17.8191 7.9817 18.1301 8.09348 18.4472 8.16869H18.4492Z" fill="white"/>
<path d="M5.05894 16.25L5.10773 16.3902C5.10163 16.374 5.0813 16.3252 5.05894 16.25Z" fill="#00C9D0"/>
<path d="M8.69106 10.6098C8.18699 10.8029 7.72358 11.0813 7.31097 11.4268C6.8435 11.8293 6.45122 12.313 6.15041 12.8496C6.03658 13.0468 5.60366 13.8313 5.55081 15.1138C5.52236 15.8394 5.73984 16.5894 5.84146 16.9004V16.9045C5.9065 17.0813 6.1626 17.7134 6.5813 18.2459C6.70325 18.4004 6.83333 18.5468 6.97154 18.687C6.52642 18.3801 6.13415 18.0102 5.79675 17.5874C5.38211 17.061 5.12602 16.435 5.06097 16.252V16.2459C4.95528 15.935 4.7378 15.1829 4.77032 14.4573C4.82317 13.1789 5.25406 12.3903 5.36992 12.1931C5.67073 11.6565 6.06301 11.1728 6.53049 10.7703C6.94309 10.4228 7.41057 10.1464 7.91057 9.95327C8.22561 9.82318 8.55081 9.72766 8.88618 9.66465C9.39024 9.57725 9.90447 9.56912 10.4106 9.64229V10.25C9.8191 10.2602 9.23577 10.3801 8.69309 10.6098H8.69106Z" fill="#00C9D0"/>
<path d="M14.7398 4.47764H12.7764V14.9004C12.7764 15.2663 12.7764 15.6199 12.6545 15.9736C12.4553 16.5366 12.0325 17.0467 11.4736 17.2724C10.6301 17.6118 9.96952 17.5732 9.18293 17.0528C8.98578 16.9187 8.81708 16.752 8.67683 16.563C9.34757 16.9187 9.94716 16.9126 10.689 16.6159C11.252 16.3902 11.6748 15.8801 11.8699 15.3171C11.9939 14.9634 11.9919 14.6098 11.9919 14.2439V3.82114H14.7033C14.7033 3.82114 14.6707 4.07927 14.7398 4.47967V4.47764ZM18.4492 7.58943V8.1687C18.1321 8.09349 17.8211 7.98171 17.5305 7.83536C16.9655 7.55488 16.5224 7.09349 16.435 6.99797C16.5366 7.06301 16.6382 7.12195 16.7459 7.17886C17.439 7.52236 18.1159 7.62805 18.4512 7.59146L18.4492 7.58943Z" fill="#00C9D0"/>
</g>
<defs>
<radialGradient id="paint0_radial_543_23084" cx="0" cy="0" r="1" gradientUnits="userSpaceOnUse" gradientTransform="translate(5.79927 25.3649) rotate(-90) scale(23.756 22.0763)">
<stop stop-color="#FFDD46"/>
<stop offset="0.1" stop-color="#FFDD46"/>
<stop offset="0.5" stop-color="#FF533A"/>
<stop offset="1" stop-color="#E734AF"/>
</radialGradient>
<clipPath id="clip0_543_23084">
<rect width="24" height="23.9939" fill="white"/>
</clipPath>
</defs>
</svg>