<svg xmlns="http://www.w3.org/2000/svg" xmlns:xlink="http://www.w3.org/1999/xlink" width="24px" height="24px" viewBox="0 0 24 24" version="1.1">
<g id="surface1">
<path fill="currentColor" d="M 19.007812 2.003906 C 18.917969 1.890625 18.78125 1.824219 18.632812 1.824219 L 13.898438 1.824219 L 13.796875 0.441406 C 13.777344 0.191406 13.570312 0 13.320312 0 L 10.679688 0 C 10.429688 0 10.222656 0.191406 10.203125 0.441406 L 10.101562 1.824219 L 5.367188 1.824219 C 5.21875 1.824219 5.082031 1.890625 4.992188 2.003906 C 4.902344 2.117188 4.867188 2.265625 4.898438 2.40625 L 5.523438 5.191406 L 6.644531 10.207031 L 7.304688 13.144531 C 7.351562 13.359375 7.546875 13.515625 7.769531 13.515625 L 9.699219 13.515625 L 9.699219 23.523438 C 9.699219 23.785156 9.914062 24 10.175781 24 L 13.824219 24 C 14.085938 24 14.300781 23.785156 14.300781 23.523438 L 14.300781 13.515625 L 16.230469 13.515625 C 16.453125 13.515625 16.644531 13.359375 16.695312 13.144531 L 17.351562 10.207031 L 18.476562 5.191406 L 19.101562 2.40625 C 19.132812 2.265625 19.097656 2.117188 19.007812 2.003906 Z M 11.125 0.957031 L 12.875 0.957031 L 12.941406 1.824219 L 11.058594 1.824219 Z M 6.585938 5.566406 L 9.089844 5.566406 L 9.089844 9.621094 L 7.496094 9.621094 Z M 13.34375 23.042969 L 10.65625 23.042969 L 10.65625 13.515625 L 13.34375 13.515625 Z M 15.847656 12.558594 L 8.152344 12.558594 L 7.710938 10.578125 L 16.289062 10.578125 Z M 16.503906 9.621094 L 10.046875 9.621094 L 10.046875 5.566406 L 13.953125 5.566406 L 13.953125 7.125 C 13.953125 7.386719 14.167969 7.601562 14.429688 7.601562 C 14.695312 7.601562 14.910156 7.386719 14.910156 7.125 L 14.910156 5.566406 L 17.414062 5.566406 Z M 17.628906 4.609375 L 6.371094 4.609375 L 5.960938 2.78125 L 18.039062 2.78125 Z M 17.628906 4.609375 "/>
<path fill="currentColor" d="M 14.429688 8.078125 C 14.167969 8.078125 13.953125 8.292969 13.953125 8.558594 L 13.953125 8.648438 C 13.953125 8.910156 14.167969 9.125 14.429688 9.125 C 14.695312 9.125 14.910156 8.910156 14.910156 8.648438 L 14.910156 8.558594 C 14.910156 8.292969 14.695312 8.078125 14.429688 8.078125 Z M 14.429688 8.078125 "/>
</g>
</svg>