<svg xmlns="http://www.w3.org/2000/svg" xmlns:xlink="http://www.w3.org/1999/xlink" width="24px" height="24px" viewBox="0 0 24 24" version="1.1">
<g id="surface1">
<path style=" stroke:none;fill-rule:evenodd;fill:rgb(0%,0%,0%);fill-opacity:1;" d="M 5.417969 0.0078125 L 18.582031 0.0078125 C 21.574219 0.0078125 24 2.34375 24 5.222656 L 24 17.777344 C 24 20.65625 21.574219 22.992188 18.582031 22.992188 L 5.417969 22.992188 C 2.425781 22.992188 0 20.65625 0 17.777344 L 0 5.222656 C 0 2.34375 2.425781 0.0078125 5.417969 0.0078125 Z M 5.417969 0.0078125 "/>
<path style=" stroke:none;fill-rule:nonzero;fill:rgb(100%,100%,100%);fill-opacity:1;" d="M 15.175781 6.699219 L 16.867188 6.699219 L 13.167969 10.765625 L 17.519531 16.300781 L 14.113281 16.300781 L 11.445312 12.945312 L 8.390625 16.300781 L 6.695312 16.300781 L 10.652344 11.949219 L 6.480469 6.699219 L 9.972656 6.699219 L 12.386719 9.765625 Z M 14.582031 15.324219 L 15.519531 15.324219 L 9.464844 7.621094 L 8.457031 7.621094 Z M 14.582031 15.324219 "/>
</g>
</svg>
