<svg width="24" height="24" viewBox="0 0 24 24" fill="none" xmlns="http://www.w3.org/2000/svg">
<path d="M4.75012 19.0368V12.8822L11.7579 7.00092C12.1058 6.70824 12.4538 6.70824 12.8017 7.00092L19.8012 12.8822V19.0368C19.8012 19.6443 19.619 20.122 19.2545 20.4699C18.89 20.8233 18.3902 21 17.7552 21H6.80442C6.16935 21 5.66682 20.8233 5.29682 20.4699C4.93235 20.122 4.75012 19.6443 4.75012 19.0368ZM2.94432 12.3852C2.65716 12.3852 2.42798 12.2996 2.25679 12.1284C2.0856 11.9517 2 11.7391 2 11.4906C2 11.2034 2.12425 10.9577 2.37276 10.7533L11.0041 3.50529C11.3962 3.16843 11.8214 3 12.2798 3C12.7437 3 13.1717 3.16843 13.5637 3.50529L22.1951 10.7533C22.4436 10.9577 22.5679 11.2034 22.5679 11.4906C22.5679 11.7391 22.4823 11.9517 22.3111 12.1284C22.1454 12.2996 21.9135 12.3852 21.6153 12.3852C21.4772 12.3852 21.3447 12.3548 21.2177 12.2941C21.0907 12.2278 20.9719 12.1477 20.8615 12.0538L12.6774 5.19512C12.5559 5.08468 12.4234 5.02945 12.2798 5.02945C12.1417 5.02945 12.012 5.08468 11.8905 5.19512L3.7064 12.0538C3.59595 12.1477 3.47722 12.2278 3.35021 12.2941C3.22319 12.3548 3.0879 12.3852 2.94432 12.3852Z" fill="currentColor"/>
</svg>