<svg width="24" height="24" viewBox="0 0 24 24" fill="none" xmlns="http://www.w3.org/2000/svg">
<path d="M5.75575 20.1327C5.20826 20.1327 4.77719 20.0069 4.46254 19.7552C4.15418 19.5097 4 19.1699 4 18.7357C4 18.1316 4.18564 17.496 4.55693 16.8289C4.92822 16.1618 5.46313 15.5388 6.16165 14.9599C6.86018 14.3746 7.70029 13.8995 8.68201 13.5345C9.67001 13.1695 10.7744 12.987 11.9953 12.987C13.2224 12.987 14.3268 13.1695 15.3086 13.5345C16.2966 13.8995 17.1367 14.3746 17.8289 14.9599C18.5274 15.5388 19.0623 16.1618 19.4336 16.8289C19.8112 17.496 20 18.1316 20 18.7357C20 19.1699 19.8427 19.5097 19.528 19.7552C19.2197 20.0069 18.7917 20.1327 18.2442 20.1327H5.75575ZM12.0047 11.3257C11.3062 11.3257 10.6675 11.14 10.0885 10.7687C9.50954 10.3912 9.04385 9.88771 8.69145 9.25841C8.34533 8.62281 8.17227 7.9117 8.17227 7.12507C8.17227 6.36362 8.34533 5.67139 8.69145 5.04838C9.04385 4.41908 9.50954 3.92193 10.0885 3.55693C10.6737 3.18564 11.3125 3 12.0047 3C12.697 3 13.3325 3.1825 13.9115 3.54749C14.4905 3.91249 14.9561 4.40649 15.3086 5.0295C15.661 5.64621 15.8372 6.34159 15.8372 7.11563C15.8372 7.90226 15.661 8.61337 15.3086 9.24897C14.9624 9.88456 14.4968 10.3912 13.9115 10.7687C13.3325 11.14 12.697 11.3257 12.0047 11.3257Z" fill="currentColor"/>
</svg>