<svg width="24" height="24" viewBox="0 0 24 24" fill="none" xmlns="http://www.w3.org/2000/svg">
  <path d="M23.8867 9.62891L17.8203 15.0508L19.5391 23.0039C19.5703 23.1367 19.5156 23.2734 19.4062 23.3555C19.3477 23.3984 19.2773 23.4219 19.207 23.4219C19.1484 23.4219 19.0859 23.4062 19.0352 23.375L12 19.2812L4.96484 23.375C4.84766 23.4414 4.70312 23.4336 4.59375 23.3555C4.48438 23.2773 4.42969 23.1406 4.46094 23.0039L6.17969 15.0508L0.113281 9.62891C0.0117188 9.53516 -0.0234375 9.39453 0.015625 9.26562C0.0585938 9.14062 0.171875 9.04688 0.308594 9.03125L8.40234 8.21094L11.6875 0.765625C11.7969 0.519531 12.2031 0.519531 12.3125 0.765625L15.5938 8.21094L23.6914 9.03125C23.8281 9.04688 23.9414 9.13672 23.9844 9.26562C24.0234 9.39453 23.9844 9.53516 23.8867 9.62891Z" fill="currentColor"/>
</svg>
